<svg width="16" height="16" viewBox="0 0 16 16" fill="none" xmlns="http://www.w3.org/2000/svg">
<path d="M8.87919 2.75977C9.11687 2.42085 9.58496 2.33775 9.92412 2.5752C10.2632 2.8127 10.3449 3.28089 10.1077 3.62012L6.5374 8.71875L10.1087 13.8184C10.3459 14.1574 10.2628 14.6247 9.92412 14.8623C9.58481 15.0999 9.11678 15.018 8.87919 14.6787L5.62138 10.0264L2.36454 14.6787C2.12693 15.0177 1.6598 15.0997 1.3206 14.8623C0.98138 14.6248 0.89861 14.1576 1.13603 13.8184L4.70634 8.71875L1.13603 3.62012C0.898502 3.28082 0.981317 2.81276 1.3206 2.5752C1.6598 2.33822 2.12708 2.42081 2.36454 2.75977L5.62138 7.41113L8.87919 2.75977ZM14.0003 1C14.5523 1.00026 15.0003 1.44788 15.0003 2V2.91992C15.0003 3.47221 14.5516 3.91992 13.9993 3.91992H12.6702V4.5H14.4153C14.7382 4.50028 15.0003 4.76207 15.0003 5.08496C15.0003 5.40787 14.7382 5.66964 14.4153 5.66992H12.4993C11.9473 5.66966 11.5003 5.22204 11.5003 4.66992V3.75C11.5003 3.19772 11.948 2.75 12.5003 2.75H13.8304V2.16992H12.0852C11.7622 2.16991 11.5003 1.90802 11.5003 1.58496C11.5003 1.2619 11.7622 1 12.0852 1H14.0003Z" fill="#5F616A"/>
</svg>
