<svg width="16" height="16" viewBox="0 0 16 16" fill="none" xmlns="http://www.w3.org/2000/svg">
<path d="M5.35942 0.26812C5.62567 -0.0491855 6.09875 -0.0909043 6.41606 0.175347L9.09672 2.42535C9.11925 2.44425 9.14046 2.46406 9.1602 2.48492L12.2383 5.06792C12.6614 5.42293 12.7164 6.05403 12.3614 6.4771L7.86234 11.8394L7.79301 11.9146C7.45394 12.2442 6.92635 12.2906 6.5352 12.025L6.45317 11.9625L1.85746 8.10601L1.78227 8.03668C1.45269 7.6976 1.40622 7.17002 1.67192 6.77886L1.73442 6.69683L5.91508 1.71343L5.45121 1.32476C5.134 1.05854 5.09332 0.585409 5.35942 0.26812ZM13.6133 7.95269C14.293 8.75543 14.8008 9.35699 14.8008 10.0767C14.8008 10.9048 14.1289 11.5767 13.3008 11.5767C12.4729 11.5765 11.8008 10.9047 11.8008 10.0767C11.8008 9.24864 12.4728 8.57661 13.3008 7.57671L13.6133 7.95269ZM3.20414 7.27789L7.03422 10.4927L10.8916 5.89605L7.06156 2.68218L3.20414 7.27789Z" fill="#5F616A"/>
<rect x="1" y="13" width="14" height="3" rx="1.5" fill="#2C9C74"/>
</svg>
