<svg width="16" height="16" viewBox="0 0 16 16" fill="none" xmlns="http://www.w3.org/2000/svg">
<path d="M2.5 15.5L2.39746 15.4951C1.89333 15.4438 1.5 15.0177 1.5 14.5V1.5C1.5 0.947715 1.94772 0.5 2.5 0.5H9.08594L9.18457 0.504883C9.41351 0.527602 9.62886 0.628861 9.79297 0.792969L14.207 5.20703C14.3945 5.39453 14.5 5.6489 14.5 5.91406V14.5C14.5 15.0523 14.0523 15.5 13.5 15.5H2.5ZM3 14H13V7.25H9.5C8.5335 7.25 7.75 6.4665 7.75 5.5V2H3V14ZM9.25 5.5C9.25 5.63807 9.36193 5.75 9.5 5.75H12.6289L9.25 2.37109V5.5Z" fill="#5F616A"/>
</svg>
