<svg width="16" height="16" viewBox="0 0 16 16" fill="none" xmlns="http://www.w3.org/2000/svg">
<path d="M1.5 12C2.05228 12 2.5 12.4477 2.5 13C2.5 13.5523 2.05228 14 1.5 14C0.947715 14 0.5 13.5523 0.5 13C0.5 12.4477 0.947715 12 1.5 12ZM14.75 12.25C15.1642 12.25 15.5 12.5858 15.5 13C15.5 13.4142 15.1642 13.75 14.75 13.75H4.75C4.33579 13.75 4 13.4142 4 13C4 12.5858 4.33579 12.25 4.75 12.25H14.75ZM1.5 7C2.05228 7 2.5 7.44772 2.5 8C2.5 8.55228 2.05228 9 1.5 9C0.947715 9 0.5 8.55228 0.5 8C0.5 7.44772 0.947715 7 1.5 7ZM14.75 7.25C15.1642 7.25 15.5 7.58579 15.5 8C15.5 8.41421 15.1642 8.75 14.75 8.75H4.75C4.33579 8.75 4 8.41421 4 8C4 7.58579 4.33579 7.25 4.75 7.25H14.75ZM1.5 2C2.05228 2 2.5 2.44772 2.5 3C2.5 3.55228 2.05228 4 1.5 4C0.947715 4 0.5 3.55228 0.5 3C0.5 2.44772 0.947715 2 1.5 2ZM14.75 2.25C15.1642 2.25 15.5 2.58579 15.5 3C15.5 3.41421 15.1642 3.75 14.75 3.75H4.75C4.33579 3.75 4 3.41421 4 3C4 2.58579 4.33579 2.25 4.75 2.25H14.75Z" fill="#5F616A"/>
</svg>
