<svg width="16" height="16" viewBox="0 0 16 16" fill="none" xmlns="http://www.w3.org/2000/svg">
<path d="M14.25 13.25C14.6642 13.25 15 13.5858 15 14C15 14.4142 14.6642 14.75 14.25 14.75H1.75C1.33579 14.75 1 14.4142 1 14C1 13.5858 1.33579 13.25 1.75 13.25H14.25Z" fill="#5F616A"/>
<path d="M4.5 7.25C4.5 9.183 6.067 10.75 8 10.75C9.933 10.75 11.5 9.183 11.5 7.25V2C11.5 1.58579 11.8358 1.25 12.25 1.25C12.6642 1.25 13 1.58579 13 2V4.25V7.25L12.9932 7.50684C12.8595 10.1489 10.6753 12.25 8 12.25C5.32472 12.25 3.14053 10.1489 3.00684 7.50684L3 7.25V2C3 1.58579 3.33579 1.25 3.75 1.25C4.16421 1.25 4.5 1.58579 4.5 2V7.25Z" fill="#5F616A"/>
</svg>
