<svg width="16" height="16" viewBox="0 0 16 16" fill="none" xmlns="http://www.w3.org/2000/svg">
<path d="M7.25 4.75C7.25 5.16421 6.91421 5.5 6.5 5.5H4C2.61929 5.5 1.5 6.61929 1.5 8C1.5 9.38071 2.61929 10.5 4 10.5H6.5C6.91421 10.5 7.25 10.8358 7.25 11.25C7.25 11.6642 6.91421 12 6.5 12H4L3.79395 11.9951C1.68056 11.8879 0 10.14 0 8C0 5.79086 1.79086 4 4 4H6.5C6.91421 4 7.25 4.33579 7.25 4.75Z" fill="#5F616A"/>
<path d="M12.2061 4.00488C14.3194 4.11211 16 5.85996 16 8C16 10.2091 14.2091 12 12 12H9.5C9.08579 12 8.75 11.6642 8.75 11.25C8.75 10.8358 9.08579 10.5 9.5 10.5H12C13.3807 10.5 14.5 9.38071 14.5 8C14.5 6.61929 13.3807 5.5 12 5.5H9.5C9.08579 5.5 8.75 5.16421 8.75 4.75C8.75 4.33579 9.08579 4 9.5 4H12L12.2061 4.00488Z" fill="#5F616A"/>
<path d="M10.25 7.25C10.6642 7.25 11 7.58579 11 8C11 8.41421 10.6642 8.75 10.25 8.75H5.75C5.33579 8.75 5 8.41421 5 8C5 7.58579 5.33579 7.25 5.75 7.25H10.25Z" fill="#5F616A"/>
</svg>
