<svg width="16" height="16" viewBox="0 0 16 16" fill="none" xmlns="http://www.w3.org/2000/svg">
<rect x="1" y="13" width="14" height="3" rx="1.5" fill="#2C9C74"/>
<path d="M10.7997 0.197501C11.1728 -0.0780418 11.6826 -0.0599065 12.0331 0.23168L12.1005 0.29418L13.705 1.8977L13.7665 1.96606C14.0583 2.31665 14.0773 2.82627 13.8017 3.19945L8.55851 10.2942C8.40424 10.5029 8.17388 10.6431 7.91788 10.6858L4.59269 11.2414L4.47257 11.2541C4.28364 11.2626 4.09821 11.2149 3.93546 11.1223L3.20401 11.8538C3.00875 12.049 2.69222 12.049 2.49698 11.8538L2.1464 11.5032C1.95117 11.3079 1.95123 10.9914 2.1464 10.7961L2.87784 10.0647C2.78511 9.9018 2.73754 9.71572 2.74601 9.5266L2.7587 9.40746L3.31339 6.08031C3.35625 5.82462 3.4965 5.59478 3.70499 5.44066L10.7997 0.197501ZM4.7587 6.52563L4.28019 9.40063L4.59952 9.71899L7.47257 9.23949L7.54581 9.14184L4.85636 6.45336L4.7587 6.52563ZM6.07413 5.55492L8.44425 7.92504L12.3398 2.65453L11.3456 1.65941L6.07413 5.55492Z" fill="#5F616A"/>
</svg>
