<svg width="16" height="16" viewBox="0 0 16 16" fill="none" xmlns="http://www.w3.org/2000/svg">
<path d="M12.875 12.25C13.2892 12.25 13.625 12.5858 13.625 13C13.625 13.4142 13.2892 13.75 12.875 13.75H3.125C2.71079 13.75 2.375 13.4142 2.375 13C2.375 12.5858 2.71079 12.25 3.125 12.25H12.875ZM11 7.25C11.4142 7.25 11.75 7.58579 11.75 8C11.75 8.41421 11.4142 8.75 11 8.75H5C4.58579 8.75 4.25 8.41421 4.25 8C4.25 7.58579 4.58579 7.25 5 7.25H11ZM14.75 2.25C15.1642 2.25 15.5 2.58579 15.5 3C15.5 3.41421 15.1642 3.75 14.75 3.75H1.25C0.835787 3.75 0.5 3.41421 0.5 3C0.5 2.58579 0.835786 2.25 1.25 2.25H14.75Z" fill="#5F616A"/>
</svg>
