<svg width="16" height="16" viewBox="0 0 16 16" fill="none" xmlns="http://www.w3.org/2000/svg">
<path d="M2.08105 8.53223C2.41836 8.53226 2.72852 8.6131 3.01172 8.7754C3.29497 8.93362 3.52085 9.14566 3.6875 9.41212C3.85833 9.67868 3.94336 9.9776 3.94336 10.3066C3.94329 10.5062 3.90589 10.6979 3.83105 10.8809C3.76024 11.0598 3.64545 11.2599 3.4873 11.4805L1.83008 13.2676H3.51172C3.78776 13.2676 4.01156 13.4909 4.01172 13.7666V13.7803C4.01164 14.0561 3.78781 14.2793 3.51172 14.2793H0.753906C0.310995 14.2793 0.0866224 13.7469 0.396484 13.4307L2.6123 10.9248C2.70801 10.7792 2.77233 10.6599 2.80566 10.5684C2.83886 10.4729 2.85539 10.3856 2.85547 10.3066C2.85547 10.0942 2.78086 9.91434 2.63086 9.76856C2.48088 9.6187 2.29499 9.54395 2.07422 9.54395C1.85367 9.54404 1.66843 9.61885 1.51855 9.76856C1.37272 9.91434 1.2998 10.0942 1.2998 10.3066C1.29989 10.5976 1.10659 11.0437 0.81543 11.044H0.661133C0.526822 11.0439 0.400014 10.9718 0.351562 10.8467C0.284087 10.672 0.250012 10.4896 0.25 10.2998C0.250025 9.98332 0.328997 9.69134 0.487305 9.42481C0.649782 9.15841 0.868679 8.94362 1.14355 8.78126C1.42264 8.61478 1.73536 8.53223 2.08105 8.53223ZM15 12.25C15.4142 12.25 15.75 12.5858 15.75 13C15.7498 13.4141 15.4141 13.75 15 13.75H6.5C6.08588 13.75 5.75016 13.4141 5.75 13C5.75 12.5858 6.08579 12.25 6.5 12.25H15ZM15 7.25001C15.4142 7.25001 15.75 7.58579 15.75 8.00001C15.7498 8.41408 15.4141 8.75001 15 8.75001H6.5C6.08588 8.75001 5.75016 8.41408 5.75 8.00001C5.75 7.58579 6.08579 7.25001 6.5 7.25001H15ZM2.25098 1.77344C2.58339 1.6073 2.97451 1.84841 2.97461 2.21973V6.33399H3.46191C3.7105 6.33412 3.91199 6.53583 3.91211 6.78419C3.91211 7.03265 3.71057 7.23425 3.46191 7.23438H1.1748C0.926146 7.23425 0.724609 7.03265 0.724609 6.78419C0.72473 6.53583 0.926221 6.33412 1.1748 6.33399H1.91211V2.99903L1.41211 3.25098C1.09693 3.41007 0.724609 3.18093 0.724609 2.82813C0.724749 2.64906 0.826055 2.48547 0.986328 2.40528L2.25098 1.77344ZM15 2.25001C15.4142 2.25001 15.75 2.58579 15.75 3.00001C15.7498 3.41408 15.4141 3.75001 15 3.75001H6.5C6.08588 3.75001 5.75016 3.41408 5.75 3.00001C5.75 2.58579 6.08579 2.25001 6.5 2.25001H15Z" fill="#5F616A"/>
</svg>
