<svg width="16" height="16" viewBox="0 0 16 16" fill="none" xmlns="http://www.w3.org/2000/svg">
<path d="M0.747976 4.5C0.334938 4.50025 -4.19617e-05 4.83496 -7.05719e-05 5.24805V10.4795C-4.86374e-05 11.0592 0.470041 11.5291 1.04973 11.5293H6.28118C6.69457 11.5293 7.03069 11.1946 7.03216 10.7812C7.03337 10.366 6.69649 10.0283 6.28118 10.0283H2.46087L2.45891 10.0264C4.02711 8.23369 6.12113 7.19904 8.1718 7.10156L8.5722 7.09473C10.5762 7.11945 12.5706 8.05345 14.0429 10.1963C14.2907 10.5569 14.7758 10.692 15.1591 10.4707C15.5406 10.2501 15.6758 9.7574 15.4277 9.3877C13.6097 6.67958 11.0066 5.45079 8.35247 5.49512L8.09563 5.50293C5.67849 5.61785 3.30076 6.77728 1.49895 8.70508L1.49602 5.24707C1.49546 4.83422 1.16086 4.5 0.747976 4.5Z" fill="#5F616A"/>
</svg>
