<svg width="16" height="16" viewBox="0 0 16 16" fill="none" xmlns="http://www.w3.org/2000/svg">
<path d="M12.46 1.5C12.8739 1.50037 13.21 1.83602 13.21 2.25C13.21 2.66398 12.8739 2.99963 12.46 3H7.99902L4.61523 13.9941C4.52269 14.2945 4.24492 14.4996 3.93066 14.5C3.44837 14.5 3.10328 14.0332 3.24512 13.5723L6.49902 3H2.95996C2.54575 3 2.20996 2.66421 2.20996 2.25C2.20996 1.83579 2.54575 1.5 2.95996 1.5H12.46ZM12.7197 8.17188C13.0126 7.87935 13.4875 7.87915 13.7803 8.17188C14.0731 8.46465 14.0728 8.9395 13.7803 9.23242L12.0127 11L13.7803 12.7676C14.0731 13.0604 14.0728 13.5352 13.7803 13.8281C13.4874 14.121 13.0126 14.121 12.7197 13.8281L10.9521 12.0605L9.18457 13.8281C8.89168 14.121 8.41692 14.121 8.12402 13.8281C7.83119 13.5352 7.83115 13.0605 8.12402 12.7676L9.8916 11L8.12402 9.23242C7.83115 8.93955 7.83119 8.46477 8.12402 8.17188C8.41694 7.87933 8.89179 7.8791 9.18457 8.17188L10.9521 9.93945L12.7197 8.17188Z" fill="#5F616A"/>
</svg>
