<svg width="16" height="16" viewBox="0 0 16 16" fill="none" xmlns="http://www.w3.org/2000/svg">
<path d="M11.5 4.5V2H4.5V4.5H11.5ZM4.5 14H11.5V11H4.5V14ZM2 6C1.72386 6 1.5 6.22386 1.5 6.5V11H3V10.5C3 9.98232 3.39333 9.55621 3.89746 9.50488L4 9.5H12L12.1025 9.50488C12.6067 9.55621 13 9.98232 13 10.5V11H14.5V6.5C14.5 6.22386 14.2761 6 14 6H2ZM14 4.5C15.1046 4.5 16 5.39543 16 6.5V11.5L15.9951 11.6025C15.9472 12.073 15.573 12.4472 15.1025 12.4951L15 12.5H13V14.5L12.9951 14.6025C12.9472 15.073 12.573 15.4472 12.1025 15.4951L12 15.5H4L3.89746 15.4951C3.42703 15.4472 3.05278 15.073 3.00488 14.6025L3 14.5V12.5H1L0.897461 12.4951C0.393331 12.4438 0 12.0177 0 11.5V6.5C0 5.46435 0.787223 4.613 1.7959 4.51074L2 4.5H3V1.5C3 0.982323 3.39333 0.556214 3.89746 0.504883L4 0.5H12L12.1025 0.504883C12.6067 0.556215 13 0.982323 13 1.5V4.5H14Z" fill="#5F616A"/>
</svg>
