<svg width="16" height="16" viewBox="0 0 16 16" fill="none" xmlns="http://www.w3.org/2000/svg">
<path d="M14.75 12.2498C15.1641 12.2498 15.4999 12.5856 15.5 12.9998C15.5 13.414 15.1642 13.7498 14.75 13.7498H1.25C0.835787 13.7498 0.5 13.414 0.5 12.9998C0.500126 12.5856 0.835864 12.2498 1.25 12.2498H14.75ZM3.02637 5.41772C3.3209 5.17755 3.7557 5.19503 4.03027 5.46948C4.30483 5.74404 4.32222 6.17881 4.08203 6.47339L4.03027 6.53003L2.56055 7.99976L4.03027 9.46948C4.32313 9.76234 4.32305 10.2371 4.03027 10.53C3.73738 10.8229 3.26262 10.8229 2.96973 10.53L0.969727 8.53003C0.67695 8.23713 0.676872 7.76234 0.969727 7.46948L2.96973 5.46948L3.02637 5.41772ZM14.75 7.24976C15.1641 7.24976 15.4999 7.58565 15.5 7.99976C15.5 8.41397 15.1642 8.74976 14.75 8.74976H6.25C5.83579 8.74976 5.5 8.41397 5.5 7.99976C5.50013 7.58565 5.83586 7.24976 6.25 7.24976H14.75ZM14.75 2.24976C15.1641 2.24976 15.4999 2.58565 15.5 2.99976C15.5 3.41397 15.1642 3.74976 14.75 3.74976H1.25C0.835787 3.74976 0.5 3.41397 0.5 2.99976C0.500126 2.58565 0.835864 2.24976 1.25 2.24976H14.75Z" fill="#5F616A"/>
</svg>
