<svg width="16" height="16" viewBox="0 0 16 16" fill="none" xmlns="http://www.w3.org/2000/svg">
<path d="M11 12.25C11.4142 12.25 11.75 12.5858 11.75 13C11.75 13.4142 11.4142 13.75 11 13.75H1.25C0.835786 13.75 0.5 13.4142 0.5 13C0.5 12.5858 0.835786 12.25 1.25 12.25H11ZM7.25 7.25C7.66421 7.25 8 7.58579 8 8C8 8.41421 7.66421 8.75 7.25 8.75H1.25C0.835787 8.75 0.5 8.41421 0.5 8C0.5 7.58579 0.835786 7.25 1.25 7.25H7.25ZM14.75 2.25C15.1642 2.25 15.5 2.58579 15.5 3C15.5 3.41421 15.1642 3.75 14.75 3.75H1.25C0.835787 3.75 0.5 3.41421 0.5 3C0.5 2.58579 0.835786 2.25 1.25 2.25H14.75Z" fill="#5F616A"/>
</svg>
