<svg width="16" height="16" viewBox="0 0 16 16" fill="none" xmlns="http://www.w3.org/2000/svg">
<path d="M14.75 12.25C15.1642 12.25 15.5 12.5858 15.5 13C15.5 13.4142 15.1642 13.75 14.75 13.75H5C4.58579 13.75 4.25 13.4142 4.25 13C4.25 12.5858 4.58579 12.25 5 12.25H14.75ZM14.75 7.25C15.1642 7.25 15.5 7.58579 15.5 8C15.5 8.41421 15.1642 8.75 14.75 8.75H8.75C8.33579 8.75 8 8.41421 8 8C8 7.58579 8.33579 7.25 8.75 7.25H14.75ZM14.75 2.25C15.1642 2.25 15.5 2.58579 15.5 3C15.5 3.41421 15.1642 3.75 14.75 3.75H1.25C0.835787 3.75 0.5 3.41421 0.5 3C0.5 2.58579 0.835786 2.25 1.25 2.25H14.75Z" fill="#5F616A"/>
</svg>
