<svg width="16" height="16" viewBox="0 0 16 16" fill="none" xmlns="http://www.w3.org/2000/svg">
<path d="M15 1C15.5523 1 16 1.44772 16 2V14C16 14.5523 15.5523 15 15 15H1C0.447715 15 0 14.5523 0 14V2C1.93276e-07 1.44772 0.447715 1 1 1H15ZM5.92578 13.5H14.5V11.0576L14.4697 11.0303L11.0391 7.59961L5.92578 13.5ZM1.5 13.5H3.94141L10.4336 6.00879L10.4873 5.95312C10.6189 5.82971 10.7916 5.75649 10.9736 5.75C11.1816 5.74269 11.3831 5.8226 11.5303 5.96973L14.5 8.93945V2.5H1.5V13.5ZM4.5 4C5.32843 4 6 4.67157 6 5.5C6 6.32843 5.32843 7 4.5 7C3.67157 7 3 6.32843 3 5.5C3 4.67157 3.67157 4 4.5 4Z" fill="#5F616A"/>
</svg>
