<svg width="16" height="16" viewBox="0 0 16 16" fill="none" xmlns="http://www.w3.org/2000/svg">
<path d="M15.2554 4.5C15.6685 4.50025 16.0035 4.83496 16.0035 5.24805V10.4795C16.0035 11.0592 15.5334 11.5291 14.9537 11.5293H9.72224C9.30885 11.5293 8.97272 11.1946 8.97126 10.7812C8.97005 10.366 9.30693 10.0283 9.72224 10.0283H13.5426L13.5445 10.0264C11.9763 8.23369 9.88229 7.19904 7.83161 7.10156L7.43122 7.09473C5.42725 7.11945 3.43277 8.05345 1.96052 10.1963C1.71269 10.5569 1.22763 10.692 0.844308 10.4707C0.462795 10.2501 0.327653 9.7574 0.575754 9.3877C2.39371 6.67958 4.9968 5.45079 7.65095 5.49512L7.90778 5.50293C10.3249 5.61785 12.7027 6.77728 14.5045 8.70508L14.5074 5.24707C14.508 4.83422 14.8426 4.5 15.2554 4.5Z" fill="#5F616A"/>
</svg>
