<svg width="16" height="16" viewBox="0 0 16 16" fill="none" xmlns="http://www.w3.org/2000/svg">
<path d="M11.8945 9.623C12.495 10.7583 12.2911 11.9591 11.6143 12.8867C10.2894 14.7013 7.204 15.519 4.22559 13.8134L4.59863 13.163L4.9707 12.5117C7.38973 13.8969 9.59544 13.1071 10.4023 12.0019C10.791 11.4693 10.8635 10.882 10.5684 10.3242C10.4297 10.0622 10.1945 9.77906 9.83008 9.49995H2.75C2.33579 9.49995 2 9.16416 2 8.74995C2 8.33574 2.33579 7.99995 2.75 7.99995H13.25C13.6642 7.99995 14 8.33574 14 8.74995C14 9.16416 13.6642 9.49995 13.25 9.49995H11.8242C11.8481 9.54091 11.8725 9.58143 11.8945 9.623ZM3.94727 12.79C4.15297 12.4308 4.61138 12.3064 4.9707 12.5117L4.22559 13.8134C3.86665 13.6075 3.74183 13.1492 3.94727 12.79ZM4.47461 2.77046C5.85837 1.08229 8.9126 0.466353 11.4072 2.67866C11.717 2.95341 11.7453 3.42736 11.4707 3.73726C11.1958 4.0468 10.7219 4.07546 10.4121 3.80073C8.53669 2.13758 6.46398 2.70996 5.63477 3.72163C5.23266 4.21249 5.1379 4.76662 5.3916 5.28804C5.57364 5.66187 5.97377 6.09803 6.72754 6.49995H4.38672C4.25095 6.32131 4.13539 6.13623 4.04199 5.94429C3.48723 4.80413 3.77079 3.62939 4.47461 2.77046Z" fill="#5F616A"/>
</svg>
