<svg width="16" height="16" viewBox="0 0 16 16" fill="none" xmlns="http://www.w3.org/2000/svg">
<path d="M13.9998 10.3301C14.5521 10.3301 14.9998 10.7779 14.9998 11.3301V12.2501C14.9996 12.8022 14.552 13.2501 13.9998 13.2501H12.6697V13.8301H14.4149C14.7379 13.8302 14.9998 14.092 14.9998 14.4151C14.9996 14.738 14.7378 15 14.4149 15.0001H12.4998C11.9476 15.0001 11.5 14.5522 11.4998 14.0001V13.0801C11.4998 12.5279 11.9475 12.0801 12.4998 12.0801H13.8299V11.5001H12.0848C11.7618 11.5 11.5 11.238 11.4998 10.9151C11.4998 10.592 11.7617 10.3301 12.0848 10.3301H13.9998ZM8.87872 1.32037C9.11629 0.981077 9.58434 0.898246 9.92364 1.1358C10.2626 1.37348 10.3447 1.84156 10.1072 2.18072L6.53692 7.27935L10.1082 12.379C10.3451 12.7181 10.2625 13.1854 9.92364 13.4229C9.58448 13.6604 9.1164 13.5783 8.87872 13.2393L5.62091 8.58697L2.36407 13.2393C2.12651 13.5782 1.65928 13.66 1.32013 13.4229C0.980932 13.1854 0.898203 12.7182 1.13556 12.379L4.70587 7.27935L1.13556 2.18072C0.898001 1.84142 0.980833 1.37337 1.32013 1.1358C1.65937 0.898477 2.12652 0.981259 2.36407 1.32037L5.62091 5.97174L8.87872 1.32037Z" fill="#5F616A"/>
</svg>
