<svg width="16" height="16" viewBox="0 0 16 16" fill="none" xmlns="http://www.w3.org/2000/svg">
<path d="M8 1.5C9.933 1.5 11.5 3.067 11.5 5C11.5 5.94811 11.122 6.80721 10.5098 7.4375C11.6939 8.0679 12.5 9.31489 12.5 10.75C12.5 12.7562 10.9246 14.3945 8.94336 14.4951L8.75 14.5H4.5L4.39746 14.4951C3.92703 14.4472 3.55278 14.073 3.50488 13.6025L3.5 13.5V2.5C3.5 1.98232 3.89333 1.55621 4.39746 1.50488L4.5 1.5H8ZM5 13H8.75C9.99264 13 11 11.9926 11 10.75C11 9.50736 9.99264 8.5 8.75 8.5H5V13ZM5 7H8C9.10457 7 10 6.10457 10 5C10 3.89543 9.10457 3 8 3H5V7Z" fill="#5F616A"/>
</svg>
