<svg width="16" height="16" viewBox="0 0 16 16" fill="none" xmlns="http://www.w3.org/2000/svg">
<path d="M14.75 12.25C15.1642 12.25 15.5 12.5858 15.5 13C15.5 13.4142 15.1642 13.75 14.75 13.75H1.25C0.835787 13.75 0.5 13.4142 0.5 13C0.5 12.5858 0.835786 12.25 1.25 12.25H14.75ZM0.969727 5.46973C1.24433 5.19512 1.67905 5.17766 1.97363 5.41797L2.03027 5.46973L4.03027 7.46973L4.08203 7.52637C4.32234 7.82095 4.30488 8.25567 4.03027 8.53027L2.03027 10.5303C1.73738 10.8232 1.26262 10.8232 0.969727 10.5303C0.676833 10.2374 0.676833 9.76262 0.969727 9.46973L2.43945 8L0.969727 6.53027L0.917969 6.47363C0.67766 6.17905 0.695123 5.74433 0.969727 5.46973ZM14.75 7.25C15.1642 7.25 15.5 7.58579 15.5 8C15.5 8.41421 15.1642 8.75 14.75 8.75H6.25C5.83579 8.75 5.5 8.41421 5.5 8C5.5 7.58579 5.83579 7.25 6.25 7.25H14.75ZM14.75 2.25C15.1642 2.25 15.5 2.58579 15.5 3C15.5 3.41421 15.1642 3.75 14.75 3.75H1.25C0.835787 3.75 0.5 3.41421 0.5 3C0.5 2.58579 0.835786 2.25 1.25 2.25H14.75Z" fill="#5F616A"/>
</svg>
