<svg width="16" height="16" viewBox="0 0 16 16" fill="none" xmlns="http://www.w3.org/2000/svg">
<rect x="1" y="13" width="14" height="3" rx="1.5" fill="#2C9C74"/>
<path d="M8.00019 0C8.60528 8.84309e-05 9.15136 0.364245 9.38398 0.922852L13.5959 11.0391C13.7862 11.4963 13.4506 12 12.9553 12C12.6775 12 12.426 11.8344 12.3166 11.5791L10.9982 8.5H5.00214L3.6828 11.5791C3.57348 11.8343 3.3227 11.9998 3.04511 12C2.54984 12 2.21334 11.4963 2.40351 11.0391L6.6164 0.922852C6.84905 0.364177 7.39501 0 8.00019 0ZM5.64472 7H10.3557L8.00019 1.5L5.64472 7Z" fill="#5F616A"/>
</svg>
