<svg width="16" height="16" viewBox="0 0 16 16" fill="none" xmlns="http://www.w3.org/2000/svg">
<path d="M6.28039 11.4695C6.57325 11.7624 6.57317 12.2372 6.28039 12.5301C5.9875 12.823 5.51274 12.823 5.21984 12.5301L1.21984 8.53009C0.945241 8.25549 0.927777 7.82077 1.16809 7.52619L1.21984 7.46955L5.21984 3.46955L5.27649 3.41779C5.57106 3.17759 6.00583 3.19498 6.28039 3.46955C6.55496 3.74411 6.57235 4.17887 6.33215 4.47345L6.28039 4.53009L2.81066 7.99982L6.28039 11.4695Z" fill="#5F616A"/>
<path d="M14.8321 7.52619C15.0724 7.82073 15.0549 8.25548 14.7804 8.53009L10.7804 12.5301C10.4875 12.823 10.0127 12.823 9.71984 12.5301C9.42695 12.2372 9.42695 11.7624 9.71984 11.4695L13.1896 7.99982L9.71984 4.53009L9.66809 4.47345C9.42779 4.17887 9.44524 3.74415 9.71984 3.46955C9.99446 3.19506 10.4292 3.17751 10.7238 3.41779L10.7804 3.46955L14.7804 7.46955L14.8321 7.52619Z" fill="#5F616A"/>
</svg>
