<svg width="80" height="80" viewBox="0 0 80 80" fill="none" xmlns="http://www.w3.org/2000/svg">
  <circle cx="40" cy="40" r="36" fill="#E8F7F2"/>
  <path d="M40 22a12 12 0 0 0-12 12c0 4.5 2.5 8.4 6.2 10.4l-1.7 7.6 7.5-4.4a12 12 0 1 0 0-25.6z" fill="#2C9C74"/>
  <circle cx="35" cy="34" r="1.6" fill="#fff"/>
  <circle cx="45" cy="34" r="1.6" fill="#fff"/>
  <path d="M34 40c1.5 2 4 3 6 3s4.5-1 6-3" stroke="#fff" stroke-width="1.5" stroke-linecap="round" fill="none"/>
  <path d="M22 18l2 4 4 2-4 2-2 4-2-4-4-2 4-2 2-4z" fill="#5AC778"/>
  <path d="M62 60l1.5 3 3 1.5-3 1.5-1.5 3-1.5-3-3-1.5 3-1.5 1.5-3z" fill="#5AC778"/>
</svg>
