<svg width="96" height="72" viewBox="0 0 96 72" fill="none" xmlns="http://www.w3.org/2000/svg">
<g filter="url(#filter0_d_36084_57503)">
<rect x="8" y="8" width="80" height="56" rx="2" fill="white"/>
<path opacity="0.4" fill-rule="evenodd" clip-rule="evenodd" d="M37 16C36.4477 16 36 16.4477 36 17C36 17.5523 36.4477 18 37 18H51C51.5523 18 52 17.5523 52 17C52 16.4477 51.5523 16 51 16H37ZM37 22C36.4477 22 36 22.4477 36 23C36 23.5523 36.4477 24 37 24H75C75.5523 24 76 23.5523 76 23C76 22.4477 75.5523 22 75 22H37ZM36 33C36 32.4477 36.4477 32 37 32H51C51.5523 32 52 32.4477 52 33C52 33.5523 51.5523 34 51 34H37C36.4477 34 36 33.5523 36 33ZM37 38C36.4477 38 36 38.4477 36 39C36 39.5523 36.4477 40 37 40H75C75.5523 40 76 39.5523 76 39C76 38.4477 75.5523 38 75 38H37ZM36 49C36 48.4477 36.4477 48 37 48H51C51.5523 48 52 48.4477 52 49C52 49.5523 51.5523 50 51 50H37C36.4477 50 36 49.5523 36 49ZM37 54C36.4477 54 36 54.4477 36 55C36 55.5523 36.4477 56 37 56H75C75.5523 56 76 55.5523 76 55C76 54.4477 75.5523 54 75 54H37Z" fill="#BBBDC8"/>
<path d="M20 17H21.1748C21.4754 17 21.7603 17.1351 21.9502 17.3682L22.7246 18.3193L23.0244 18.6875H27C27.5523 18.6875 28 19.1352 28 19.6875V23C28 23.5523 27.5523 24 27 24H20C19.4477 24 19 23.5523 19 23V18C19 17.4477 19.4477 17 20 17Z" fill="#7FDEA5" stroke="#7FDEA5" stroke-width="2"/>
<path d="M20 32.5H21.1748C21.4754 32.5 21.7603 32.6351 21.9502 32.8682L22.7246 33.8193L23.0244 34.1875H27C27.5523 34.1875 28 34.6352 28 35.1875V38.5C28 39.0523 27.5523 39.5 27 39.5H20C19.4477 39.5 19 39.0523 19 38.5V33.5C19 32.9477 19.4477 32.5 20 32.5Z" fill="#7FDEA5" stroke="#7FDEA5" stroke-width="2"/>
<path d="M20 48H21.1748C21.4754 48 21.7603 48.1351 21.9502 48.3682L22.7246 49.3193L23.0244 49.6875H27C27.5523 49.6875 28 50.1352 28 50.6875V54C28 54.5523 27.5523 55 27 55H20C19.4477 55 19 54.5523 19 54V49C19 48.4477 19.4477 48 20 48Z" fill="#7FDEA5" stroke="#7FDEA5" stroke-width="2"/>
</g>
<g filter="url(#filter1_i_36084_57503)">
<circle cx="82" cy="58" r="14" fill="#2C9C74"/>
</g>
<path fill-rule="evenodd" clip-rule="evenodd" d="M77.1102 61.2804C77.1676 61.1233 77.3859 61.1233 77.4432 61.2804L77.8768 62.4708L79.0487 62.9122C79.2034 62.9705 79.2035 63.1929 79.0487 63.2511L77.8768 63.6915L77.4432 64.8819C77.386 65.0392 77.1675 65.0392 77.1102 64.8819L76.6766 63.6915L75.5048 63.2511C75.35 63.1929 75.35 62.9704 75.5048 62.9122L76.6766 62.4708L77.1102 61.2804ZM81.7577 51.8321C81.9129 51.4708 82.4169 51.4707 82.5721 51.8321L83.9071 54.9405C84.1762 55.567 84.6686 56.0675 85.285 56.3409L88.3436 57.6974C88.6992 57.8551 88.6992 58.3677 88.3436 58.5255L85.285 59.8829C84.6687 60.1563 84.1762 60.6559 83.9071 61.2823L82.5721 64.3917C82.4168 64.7525 81.9131 64.7525 81.7577 64.3917L80.4227 61.2823C80.1537 60.6559 79.6612 60.1564 79.0448 59.8829L75.9852 58.5255C75.6302 58.3675 75.63 57.8552 75.9852 57.6974L79.0448 56.3409C79.6612 56.0675 80.1537 55.567 80.4227 54.9405L81.7577 51.8321ZM81.7264 55.5186C81.3139 56.4792 80.5593 57.2468 79.6141 57.6661L78.6083 58.1114L79.6141 58.5577C80.5592 58.977 81.3139 59.7437 81.7264 60.7042L82.1649 61.7257L82.6034 60.7042C83.0159 59.7437 83.7706 58.977 84.7157 58.5577L85.7216 58.1114L84.7157 57.6661C83.7705 57.2468 83.0159 56.4792 82.6034 55.5186L82.1649 54.4972L81.7264 55.5186ZM78.0272 51.0587C78.0559 50.9804 78.1654 50.9805 78.1942 51.0587L78.7118 52.4786L80.1083 53.004C80.1857 53.0331 80.1857 53.1448 80.1083 53.1739L78.7118 53.6993L78.1942 55.1182C78.1656 55.1969 78.0559 55.1969 78.0272 55.1182L77.5106 53.6993L76.1141 53.1739C76.0367 53.1448 76.0367 53.0331 76.1141 53.004L77.5106 52.4786L78.0272 51.0587Z" fill="white"/>
<defs>
<filter id="filter0_d_36084_57503" x="4" y="5" width="88" height="64" filterUnits="userSpaceOnUse" color-interpolation-filters="sRGB">
<feFlood flood-opacity="0" result="BackgroundImageFix"/>
<feColorMatrix in="SourceAlpha" type="matrix" values="0 0 0 0 0 0 0 0 0 0 0 0 0 0 0 0 0 0 127 0" result="hardAlpha"/>
<feOffset dy="1"/>
<feGaussianBlur stdDeviation="2"/>
<feComposite in2="hardAlpha" operator="out"/>
<feColorMatrix type="matrix" values="0 0 0 0 0.436165 0 0 0 0 0.391583 0 0 0 0 0.391583 0 0 0 0.16 0"/>
<feBlend mode="normal" in2="BackgroundImageFix" result="effect1_dropShadow_36084_57503"/>
<feBlend mode="normal" in="SourceGraphic" in2="effect1_dropShadow_36084_57503" result="shape"/>
</filter>
<filter id="filter1_i_36084_57503" x="66" y="40" width="30" height="32" filterUnits="userSpaceOnUse" color-interpolation-filters="sRGB">
<feFlood flood-opacity="0" result="BackgroundImageFix"/>
<feBlend mode="normal" in="SourceGraphic" in2="BackgroundImageFix" result="shape"/>
<feColorMatrix in="SourceAlpha" type="matrix" values="0 0 0 0 0 0 0 0 0 0 0 0 0 0 0 0 0 0 127 0" result="hardAlpha"/>
<feOffset dx="-2" dy="-4"/>
<feGaussianBlur stdDeviation="4"/>
<feComposite in2="hardAlpha" operator="arithmetic" k2="-1" k3="1"/>
<feColorMatrix type="matrix" values="0 0 0 0 0 0 0 0 0 0 0 0 0 0 0 0 0 0 0.04 0"/>
<feBlend mode="normal" in2="shape" result="effect1_innerShadow_36084_57503"/>
</filter>
</defs>
</svg>
