<svg preserveAspectRatio="none" width="100%" height="100%" overflow="visible" style="display: block;" viewBox="0 0 20 20" fill="none" xmlns="http://www.w3.org/2000/svg">
<g id="Icon" clip-path="url(#clip0_0_132)">
<rect width="20" height="20" fill="#558AE1" fill-opacity="0.05"/>
<path id="Rectangle 689 (Stroke)" fill-rule="evenodd" clip-rule="evenodd" d="M19 1H1V19H19V1ZM0 0V20H20V0H0Z" fill="var(--fill-0, #558AE1)"/>
<path id="Union" fill-rule="evenodd" clip-rule="evenodd" d="M5 5.5C4.44772 5.5 4 5.94772 4 6.5V13.5C4 14.0523 4.44772 14.5 5 14.5H15.5037C15.7778 14.5 16 14.2778 16 14.0037C16 14.0013 16 13.9989 16 13.9964V6.5C16 5.94772 15.5523 5.5 15 5.5H5ZM15 12.635V7.05512L12.2101 9.3378L15 12.635ZM11.436 9.97113L10 11.146L8.56402 9.97113L5.57806 13.5H14.422L11.436 9.97113ZM7.78995 9.33781L5 7.05512V12.635L7.78995 9.33781ZM14.0993 6.5L10 9.85397L5.9007 6.5H14.0993Z" fill="var(--fill-0, #558AE1)"/>
</g>
<defs>
<clipPath id="clip0_0_132">
<rect width="20" height="20" fill="white"/>
</clipPath>
</defs>
</svg>
