<svg preserveAspectRatio="none" width="100%" height="100%" overflow="visible" style="display: block;" viewBox="0 0 20 18" fill="none" xmlns="http://www.w3.org/2000/svg">
<g id="Icon">
<path id="Vector 2" d="M4 1H0V16L17 7V3H6.5L4 1Z" fill="var(--fill-0, #EBF8EF)"/>
<path id="Vector 2 (Stroke)" fill-rule="evenodd" clip-rule="evenodd" d="M0 0H4.35078L6.85078 2H17V18H0V0ZM6.5 3L4 1H1V17H16V3H6.5Z" fill="var(--fill-0, #2C9C74)"/>
<path id="Rectangle 168" d="M2 4H17V16H2V4Z" fill="var(--fill-0, #EBF4FD)"/>
<path id="Rectangle 168 (Stroke)" fill-rule="evenodd" clip-rule="evenodd" d="M16 5H3V15H16V5ZM2 4V16H17V4H2Z" fill="var(--fill-0, #9FC8EC)"/>
<path id="Rectangle 169" d="M4 6H19V8H4V6Z" fill="var(--fill-0, #FDEEEE)"/>
<path id="Rectangle 168 (Stroke)_2" fill-rule="evenodd" clip-rule="evenodd" d="M18 7H5V9H18V7ZM4 6V10H19V6H4Z" fill="var(--fill-0, #EF8C8C)"/>
<path id="Vector 4" d="M19.5 8.5H4L0.5 17H17L19.5 8.5Z" fill="var(--fill-0, #EBF8EF)"/>
<path id="Vector 4 (Stroke)" fill-rule="evenodd" clip-rule="evenodd" d="M4 8H20L17 18H0L4 8ZM18.5 9L16 17H1.5L5 9H18.5Z" fill="var(--fill-0, #2C9C74)"/>
</g>
</svg>
