<svg preserveAspectRatio="none" width="100%" height="100%" overflow="visible" style="display: block;" viewBox="0 0 20 18" fill="none" xmlns="http://www.w3.org/2000/svg">
<g id="Icon">
<path id="Vector 2" d="M6 1H1V5H19V3H8.5L6 1Z" fill="var(--fill-0, #EBF8EF)"/>
<path id="Vector 2 (Stroke)" fill-rule="evenodd" clip-rule="evenodd" d="M0 0H6.35078L8.85078 2H20V18H0V0ZM8.5 3L6 1H1V17H19V3H8.5Z" fill="var(--fill-0, #2C9C74)"/>
<path id="Vector 4" d="M19 5H1V17H19V5Z" fill="var(--fill-0, #EBF8EF)"/>
<path id="Subtract" fill-rule="evenodd" clip-rule="evenodd" d="M1 5H0V18H20V5H19V6V7V17H1V7V6V5Z" fill="var(--fill-0, #2C9C74)"/>
<path id="Vector" d="M6.72571 7.69762L8.13143 5.56048C8.35429 5.22 8.89143 5.22 9.11429 5.56048L9.96 6.84905L9.25714 7.9281L8.68571 8.77667L6.72571 7.69762ZM15.84 10.7462L14.9257 9.35286L12.9486 10.4005L14.2114 12.3333H14.8571C15.2914 12.3333 15.6857 12.1081 15.88 11.7519C15.96 11.6052 16 11.4481 16 11.2857C16 11.0971 15.9429 10.9138 15.84 10.7462ZM12.5714 14.9524H13.4286C13.8629 14.9524 14.2571 14.7271 14.4514 14.371L15.28 12.8571H12.5714V11.8095L10.2857 13.9048L12.5714 16V14.9524ZM9.14286 12.8571H6.68571L6.20571 13.5957C6.03429 13.8576 6.02286 14.1824 6.17143 14.46C6.33143 14.7586 6.66857 14.9524 7.04 14.9524H9.14286V12.8571ZM6.92571 11.469L7.91429 12.0138L7.13143 9.1381L4 9.85571L4.97143 10.39L4.73714 10.7514C4.53714 11.0605 4.52 11.4376 4.69714 11.7571L5.62857 13.4648L6.92571 11.469ZM13.1543 6.64476L12.4114 5.5081C12.2 5.19381 11.8286 5 11.4286 5H9.41143L11.1943 7.72381L10.2114 8.26333L13.3486 8.98095L14.1314 6.10524L13.1543 6.64476Z" fill="var(--fill-0, #2C9C74)"/>
</g>
</svg>
