<svg preserveAspectRatio="none" width="100%" height="100%" overflow="visible" style="display: block;" viewBox="0 0 20 18.6426" fill="none" xmlns="http://www.w3.org/2000/svg">
<g id="Icon">
<path id="Vector 2" d="M6 1.64261H1V5.64261H19V3.64261H8.5L6 1.64261Z" fill="var(--fill-0, #EBF8EF)"/>
<path id="Vector 2 (Stroke)" fill-rule="evenodd" clip-rule="evenodd" d="M0 0.642614H6.35078L8.85078 2.64261H20V18.6426H0V0.642614ZM8.5 3.64261L6 1.64261H1V17.6426H19V3.64261H8.5Z" fill="var(--fill-0, #2C9C74)"/>
<path id="Vector 4" d="M19 5.64261H1V17.6426H19V5.64261Z" fill="var(--fill-0, #EBF8EF)"/>
<path id="Vector" d="M16.5982 5.14261L16.5982 9.23234C16.5858 10.056 16.2468 10.8509 15.6557 11.442C15.0645 12.0332 14.2697 12.3722 13.446 12.3845C12.6223 12.3968 11.8373 12.0814 11.2635 11.5077C10.6898 10.934 10.3744 10.1489 10.3867 9.32524L10.4873 2.60168C10.4955 2.05255 10.7215 1.52265 11.1156 1.12856C11.5097 0.73446 12.0396 0.508445 12.5887 0.500232C13.1379 0.492019 13.6612 0.702282 14.0437 1.08476C14.4262 1.46725 14.6365 1.99062 14.6282 2.53974L14.524 9.26702C14.5199 9.54158 14.4069 9.80653 14.2098 10.0036C14.0128 10.2006 13.7478 10.3136 13.4733 10.3177C13.1987 10.3218 12.937 10.2167 12.7458 10.0255C12.5545 9.83423 12.4494 9.57255 12.4535 9.29799C12.4535 9.29799 12.4713 8.90435 12.4963 7.4238" stroke="var(--stroke-0, #2C9C74)" stroke-linecap="round" stroke-linejoin="round"/>
<path id="Subtract" fill-rule="evenodd" clip-rule="evenodd" d="M1 5.64261H0V18.6426H20V5.64261H19V6.64261V7.64261V17.6426H1V7.64261V6.64261V5.64261Z" fill="var(--fill-0, #2C9C74)"/>
</g>
</svg>
