<svg preserveAspectRatio="none" width="100%" height="100%" overflow="visible" style="display: block;" viewBox="0 0 20 20" fill="none" xmlns="http://www.w3.org/2000/svg">
<g id="Icon" clip-path="url(#clip0_0_146)">
<path id="Rectangle 690" d="M0 0H20V20H0V0Z" fill="var(--fill-0, #EF8C8C)" fill-opacity="0.05"/>
<path id="Rectangle 690 (Stroke)" fill-rule="evenodd" clip-rule="evenodd" d="M19 1H1V19H19V1ZM0 0V20H20V0H0Z" fill="var(--fill-0, #EF8C8C)"/>
<path id="path2697" d="M4.26014 15.7576C3.54442 15.076 4.31877 14.1394 6.42027 13.1448L7.74257 12.519L8.25771 11.4456C8.54104 10.8553 8.9639 9.89199 9.1974 9.30502L9.62196 8.23779L9.3294 7.44799C8.96966 6.47685 8.84137 5.01748 9.06962 4.49271C9.37878 3.78191 10.3914 3.85484 10.7924 4.61678C11.1055 5.21185 11.0735 6.28951 10.7023 7.6486L10.398 8.76282L10.666 9.19612C10.8135 9.43444 11.244 10.0003 11.6229 10.4536L12.335 11.2971L13.221 11.187C16.0359 10.8372 17 11.4317 17 12.2842C17 13.36 14.7897 13.4488 12.9337 12.2073C12.5161 11.928 12.2293 11.6505 12.2293 11.6505C12.2293 11.6505 11.0665 11.8759 10.494 12.0229C9.9031 12.1745 9.60829 12.2695 8.74267 12.5478C8.74267 12.5478 8.43896 12.9678 8.24105 13.2732C7.50475 14.4092 6.64503 15.3507 6.03106 15.6934C5.34364 16.077 4.62298 16.1032 4.26014 15.7576V15.7576ZM5.38335 15.3755C5.78567 15.1387 6.59997 14.2215 7.16365 13.3702L7.39187 13.0256L6.35272 13.5232C4.74775 14.2917 4.01351 15.016 4.39531 15.4541C4.60979 15.7002 4.86637 15.6798 5.38335 15.3755V15.3755ZM15.8085 12.5887C16.202 12.3262 16.1449 11.7973 15.7 11.584C15.3538 11.418 15.0747 11.3839 14.1753 11.3966C13.6226 11.4325 12.7339 11.5385 12.5832 11.5708C12.5832 11.5708 13.0715 11.8922 13.2883 12.0103C13.5768 12.1672 14.2781 12.4586 14.79 12.6078C15.295 12.755 15.5872 12.7395 15.8085 12.5887V12.5887ZM11.6167 10.9295C11.3785 10.6911 10.9736 10.1935 10.7168 9.82375C10.381 9.40429 10.2125 9.10837 10.2125 9.10837C10.2125 9.10837 9.96708 9.86028 9.76569 10.3127L9.13739 11.7917L8.95523 12.1272C8.95523 12.1272 9.92367 11.8248 10.4164 11.7022C10.9383 11.5724 11.9974 11.374 11.9974 11.374L11.6167 10.9295ZM10.2658 5.77043C10.3266 5.28497 10.3523 4.80023 10.1886 4.55579C9.73428 4.08284 9.18597 4.47724 9.27884 5.60166C9.31009 5.97992 9.40877 6.62654 9.54068 7.02509L9.78054 7.74972L9.94935 7.20395C10.0422 6.90378 10.1846 6.25869 10.2658 5.77043V5.77043Z" fill="var(--fill-0, #EF8C8C)"/>
</g>
<defs>
<clipPath id="clip0_0_146">
<rect width="20" height="20" fill="white"/>
</clipPath>
</defs>
</svg>
