<svg preserveAspectRatio="none" width="100%" height="100%" overflow="visible" style="display: block;" viewBox="0 0 20 20" fill="none" xmlns="http://www.w3.org/2000/svg">
<g id="Icon" clip-path="url(#clip0_0_36)">
<path id="Rectangle 695" d="M0 0H20V20H0V0Z" fill="var(--fill-0, #BBBDC8)" fill-opacity="0.05"/>
<path id="Rectangle 695 (Stroke)" fill-rule="evenodd" clip-rule="evenodd" d="M19 1H1V19H19V1ZM0 0V20H20V0H0Z" fill="var(--fill-0, #BBBDC8)"/>
<path id="Union" fill-rule="evenodd" clip-rule="evenodd" d="M5 1H4V5H5H6V6H5V7H6V8H5V9H6V10H5V11H6V12H5V13H6V14H5V15H6V16H5V17H6V19H7V18H8V17H7V16H8V15H7V14H8V13H7V12H8V11H7V10H8V9H7V8H8V7H7V5H8H9V1H8V4H5V1Z" fill="var(--fill-0, #BBBDC8)"/>
</g>
<defs>
<clipPath id="clip0_0_36">
<rect width="20" height="20" fill="white"/>
</clipPath>
</defs>
</svg>
