<svg width="32" height="32" viewBox="0 0 32 32" fill="none" xmlns="http://www.w3.org/2000/svg">
<path d="M0 4C0 1.79086 1.79086 0 4 0H28C30.2091 0 32 1.79086 32 4V28C32 30.2091 30.2091 32 28 32H4C1.79086 32 0 30.2091 0 28V4Z" fill="#084D4B"/>
<g clip-path="url(#clip0_28333_4600)">
<path d="M16 8.7998C19.9765 8.7998 23.2002 12.0235 23.2002 16C23.2002 19.9764 19.9765 23.2002 16 23.2002C12.0236 23.2002 8.7998 19.9764 8.7998 16C8.7998 12.0235 12.0236 8.7998 16 8.7998Z" stroke="#1C8269" stroke-width="1.6"/>
<path d="M14.4004 10.3998C17.493 10.4 20 12.9077 20 16.0004C19.9998 19.0929 17.4929 21.5998 14.4004 21.6C11.3077 21.6 8.80002 19.093 8.7998 16.0004C8.7998 12.9076 11.3076 10.3998 14.4004 10.3998Z" stroke="#1C8269" stroke-width="1.6"/>
<path d="M12 12.7998C13.7673 12.7998 15.2002 14.2327 15.2002 16C15.2002 17.7673 13.7673 19.2002 12 19.2002C10.2327 19.2002 8.7998 17.7673 8.7998 16C8.7998 14.2327 10.2327 12.7998 12 12.7998Z" stroke="#8CEAA7" stroke-width="1.6"/>
</g>
<defs>
<clipPath id="clip0_28333_4600">
<rect width="16" height="16" fill="white" transform="translate(8 8)"/>
</clipPath>
</defs>
</svg>
