<svg width="24" height="24" viewBox="0 0 24 24" fill="none" xmlns="http://www.w3.org/2000/svg">
<path d="M0 4C0 1.79086 1.79086 0 4 0H20C22.2091 0 24 1.79086 24 4V20C24 22.2091 22.2091 24 20 24H4C1.79086 24 0 22.2091 0 20V4Z" fill="#084D4B"/>
<g clip-path="url(#clip0_28333_4609)">
<path d="M12 4.7998C15.9765 4.7998 19.2002 8.02355 19.2002 12C19.2002 15.9764 15.9765 19.2002 12 19.2002C8.02355 19.2002 4.7998 15.9764 4.7998 12C4.7998 8.02355 8.02355 4.7998 12 4.7998Z" stroke="#1C8269" stroke-width="1.6"/>
<path d="M10.4004 6.39981C13.493 6.40002 16 8.90773 16 12.0004C15.9998 15.0929 13.4929 17.5998 10.4004 17.6C7.30773 17.6 4.80002 15.093 4.7998 12.0004C4.7998 8.9076 7.3076 6.39981 10.4004 6.39981Z" stroke="#1C8269" stroke-width="1.6"/>
<path d="M8 8.7998C9.76731 8.7998 11.2002 10.2327 11.2002 12C11.2002 13.7673 9.76731 15.2002 8 15.2002C6.23269 15.2002 4.7998 13.7673 4.7998 12C4.7998 10.2327 6.23269 8.7998 8 8.7998Z" stroke="#8CEAA7" stroke-width="1.6"/>
</g>
<defs>
<clipPath id="clip0_28333_4609">
<rect width="16" height="16" fill="white" transform="translate(4 4)"/>
</clipPath>
</defs>
</svg>
