<svg width="40" height="40" viewBox="0 0 40 40" fill="none" xmlns="http://www.w3.org/2000/svg">
<rect width="40" height="40" rx="4" fill="#084D4B"/>
<g clip-path="url(#clip0_28333_4582)">
<path d="M20 10.7998C25.081 10.7998 29.2002 14.919 29.2002 20C29.2002 25.081 25.081 29.2002 20 29.2002C14.919 29.2002 10.7998 25.081 10.7998 20C10.7998 14.919 14.919 10.7998 20 10.7998Z" stroke="#1C8269" stroke-width="1.6"/>
<path d="M18 12.7998C21.9765 12.7998 25.2002 16.0236 25.2002 20C25.2002 23.9764 21.9765 27.2002 18 27.2002C14.0235 27.2002 10.7998 23.9764 10.7998 20C10.7998 16.0236 14.0235 12.7998 18 12.7998Z" stroke="#1C8269" stroke-width="1.6"/>
<path d="M15 15.7998C17.3196 15.7998 19.2002 17.6804 19.2002 20C19.2002 22.3196 17.3196 24.2002 15 24.2002C12.6804 24.2002 10.7998 22.3196 10.7998 20C10.7998 17.6804 12.6804 15.7998 15 15.7998Z" stroke="#8CEAA7" stroke-width="1.6"/>
</g>
<defs>
<clipPath id="clip0_28333_4582">
<rect width="20" height="20" fill="white" transform="translate(10 10)"/>
</clipPath>
</defs>
</svg>
