<svg width="32" height="32" viewBox="0 0 32 32" fill="none" xmlns="http://www.w3.org/2000/svg">
<path d="M0 4C0 1.79086 1.79086 0 4 0H28C30.2091 0 32 1.79086 32 4V28C32 30.2091 30.2091 32 28 32H4C1.79086 32 0 30.2091 0 28V4Z" fill="#084D4B"/>
<g clip-path="url(#clip0_38120_512)">
<path fill-rule="evenodd" clip-rule="evenodd" d="M8 16.0001C8.00003 20.4183 11.5817 24 16 24C20.4183 24 24 20.4183 24 16C24 11.5817 20.4183 8 16 8C11.5817 8 8 11.5818 8 16.0001ZM22.4 16C22.4 19.5346 19.5346 22.4 16 22.4C15.7292 22.4 15.4623 22.3832 15.2004 22.3505C18.3573 21.9567 20.8 19.2637 20.8 16.0001C20.8 12.7363 18.3568 10.0431 15.1996 9.64956C15.4618 9.61685 15.7289 9.6 16 9.6C19.5346 9.6 22.4 12.4654 22.4 16ZM9.6 16.0001C9.59995 14.6747 10.6745 13.6 12 13.6C13.3255 13.6 14.4 14.6745 14.4 16C14.4 17.3255 13.3255 18.4 12 18.4C10.6745 18.4 9.60005 17.3255 9.6 16.0001ZM14.4 20.8001C13.4129 20.8001 12.4953 20.5021 11.7324 19.9912C11.8209 19.997 11.9101 20 12 20C14.2091 20 16 18.2091 16 16C16 13.7909 14.2091 12 12 12C11.9102 12 11.8211 12.003 11.7327 12.0088C12.4956 11.498 13.413 11.2001 14.4 11.2001C17.051 11.2001 19.2 13.3491 19.2 16.0001C19.2 18.6511 17.051 20.8001 14.4 20.8001Z" fill="url(#paint0_linear_38120_512)"/>
</g>
<defs>
<linearGradient id="paint0_linear_38120_512" x1="24" y1="16" x2="8" y2="16" gradientUnits="userSpaceOnUse">
<stop stop-color="#C3C4E8"/>
<stop offset="0.293989" stop-color="#D8D8F1"/>
<stop offset="0.659744" stop-color="#F8EB81"/>
<stop offset="1" stop-color="#93F6A4"/>
</linearGradient>
<clipPath id="clip0_38120_512">
<rect width="16" height="16" fill="white" transform="translate(8 8)"/>
</clipPath>
</defs>
</svg>
