<svg width="40" height="40" viewBox="0 0 40 40" fill="none" xmlns="http://www.w3.org/2000/svg">
<rect width="40" height="40" rx="4" fill="#084D4B"/>
<g clip-path="url(#clip0_38120_506)">
<path fill-rule="evenodd" clip-rule="evenodd" d="M10 20.0001C10 25.5229 14.4772 30 20 30C25.5228 30 30 25.5228 30 20C30 14.4772 25.5228 10 20 10C14.4772 10 10 14.4772 10 20.0001ZM28 20C28 24.4183 24.4183 28 20 28C19.6615 28 19.3279 27.979 19.0005 27.9382C22.9466 27.4459 26 24.0796 26 20.0001C26 15.9203 22.9461 12.5538 18.9995 12.062C19.3273 12.0211 19.6612 12 20 12C24.4183 12 28 15.5817 28 20ZM12 20.0001C11.9999 18.3433 13.3431 17 15 17C16.6569 17 18 18.3431 18 20C18 21.6569 16.6569 23 15 23C13.3432 23 12.0001 21.6569 12 20.0001ZM18 26.0001C16.7661 26.0001 15.6191 25.6276 14.6655 24.989C14.7761 24.9963 14.8876 25 15 25C17.7614 25 20 22.7614 20 20C20 17.2386 17.7614 15 15 15C14.8877 15 14.7763 15.0037 14.6659 15.011C15.6195 14.3725 16.7663 14.0001 18 14.0001C21.3137 14.0001 24 16.6864 24 20.0001C24 23.3138 21.3137 26.0001 18 26.0001Z" fill="url(#paint0_linear_38120_506)"/>
</g>
<defs>
<linearGradient id="paint0_linear_38120_506" x1="30" y1="20" x2="10" y2="20" gradientUnits="userSpaceOnUse">
<stop stop-color="#C3C4E8"/>
<stop offset="0.293989" stop-color="#D8D8F1"/>
<stop offset="0.659744" stop-color="#F8EB81"/>
<stop offset="1" stop-color="#93F6A4"/>
</linearGradient>
<clipPath id="clip0_38120_506">
<rect width="20" height="20" fill="white" transform="translate(10 10)"/>
</clipPath>
</defs>
</svg>
