<svg width="24" height="24" viewBox="0 0 24 24" fill="none" xmlns="http://www.w3.org/2000/svg">
<path d="M0 4C0 1.79086 1.79086 0 4 0H20C22.2091 0 24 1.79086 24 4V20C24 22.2091 22.2091 24 20 24H4C1.79086 24 0 22.2091 0 20V4Z" fill="#084D4B"/>
<g clip-path="url(#clip0_28333_4676)">
<path fill-rule="evenodd" clip-rule="evenodd" d="M4 12.0001C4.00003 16.4183 7.58174 20 12 20C16.4183 20 20 16.4183 20 12C20 7.58172 16.4183 4 12 4C7.58172 4 4 7.58177 4 12.0001ZM18.4 12C18.4 15.5346 15.5346 18.4 12 18.4C11.7292 18.4 11.4623 18.3832 11.2004 18.3505C14.3573 17.9567 16.8 15.2637 16.8 12.0001C16.8 8.73627 14.3568 6.04307 11.1996 5.64956C11.4618 5.61685 11.7289 5.6 12 5.6C15.5346 5.6 18.4 8.46538 18.4 12ZM5.6 12.0001C5.59995 10.6747 6.67449 9.6 8 9.6C9.32548 9.6 10.4 10.6745 10.4 12C10.4 13.3255 9.32548 14.4 8 14.4C6.67455 14.4 5.60005 13.3255 5.6 12.0001ZM10.4 16.8001C9.41286 16.8001 8.49532 16.5021 7.73242 15.9912C7.82086 15.997 7.91008 16 8 16C10.2091 16 12 14.2091 12 12C12 9.79086 10.2091 8 8 8C7.91019 8 7.82107 8.00296 7.73274 8.00879C8.49558 7.498 9.413 7.2001 10.4 7.2001C13.051 7.2001 15.2 9.34913 15.2 12.0001C15.2 14.6511 13.051 16.8001 10.4 16.8001Z" fill="#8CEAA7"/>
</g>
<defs>
<clipPath id="clip0_28333_4676">
<rect width="16" height="16" fill="white" transform="translate(4 4)"/>
</clipPath>
</defs>
</svg>
