<svg width="32" height="32" viewBox="0 0 32 32" fill="none" xmlns="http://www.w3.org/2000/svg">
<path d="M0 4C0 1.79086 1.79086 0 4 0H28C30.2091 0 32 1.79086 32 4V28C32 30.2091 30.2091 32 28 32H4C1.79086 32 0 30.2091 0 28V4Z" fill="#358CEB"/>
<g clip-path="url(#clip0_28063_260)">
<path d="M9.64103 11.2H11.2821V13.6H19.4872V11.2H21.1282V15.2H22.7692V11.2C22.7692 10.32 22.0308 9.6 21.1282 9.6H17.6985C17.3538 8.672 16.4513 8 15.3846 8C14.3179 8 13.4154 8.672 13.0708 9.6H9.64103C8.73846 9.6 8 10.32 8 11.2V22.4C8 23.28 8.73846 24 9.64103 24H14.5641V22.4H9.64103V11.2ZM15.3846 9.6C15.8359 9.6 16.2051 9.96 16.2051 10.4C16.2051 10.84 15.8359 11.2 15.3846 11.2C14.9333 11.2 14.5641 10.84 14.5641 10.4C14.5641 9.96 14.9333 9.6 15.3846 9.6Z" fill="white"/>
<path d="M22.7692 16.4L18.2646 20.8L15.7949 18.4L14.5641 19.6L18.2646 23.2L24 17.6L22.7692 16.4Z" fill="white"/>
</g>
<defs>
<clipPath id="clip0_28063_260">
<rect width="16" height="16" fill="white" transform="translate(8 8)"/>
</clipPath>
</defs>
</svg>
