<svg width="40" height="40" viewBox="0 0 40 40" fill="none" xmlns="http://www.w3.org/2000/svg">
<rect width="40" height="40" rx="4" fill="#358CEB"/>
<g clip-path="url(#clip0_28044_2317)">
<path d="M12.0513 14H14.1026V17H24.359V14H26.4103V19H28.4615V14C28.4615 12.9 27.5385 12 26.4103 12H22.1231C21.6923 10.84 20.5641 10 19.2308 10C17.8974 10 16.7692 10.84 16.3385 12H12.0513C10.9231 12 10 12.9 10 14V28C10 29.1 10.9231 30 12.0513 30H18.2051V28H12.0513V14ZM19.2308 12C19.7949 12 20.2564 12.45 20.2564 13C20.2564 13.55 19.7949 14 19.2308 14C18.6667 14 18.2051 13.55 18.2051 13C18.2051 12.45 18.6667 12 19.2308 12Z" fill="white"/>
<path d="M28.4615 20.5L22.8308 26L19.7436 23L18.2051 24.5L22.8308 29L30 22L28.4615 20.5Z" fill="white"/>
</g>
<defs>
<clipPath id="clip0_28044_2317">
<rect width="20" height="20" fill="white" transform="translate(10 10)"/>
</clipPath>
</defs>
</svg>
