<svg width="24" height="24" viewBox="0 0 24 24" fill="none" xmlns="http://www.w3.org/2000/svg">
<path d="M0 4C0 1.79086 1.79086 0 4 0H20C22.2091 0 24 1.79086 24 4V20C24 22.2091 22.2091 24 20 24H4C1.79086 24 0 22.2091 0 20V4Z" fill="#358CEB"/>
<g clip-path="url(#clip0_28063_263)">
<path d="M5.64103 7.2H7.28205V9.6H15.4872V7.2H17.1282V11.2H18.7692V7.2C18.7692 6.32 18.0308 5.6 17.1282 5.6H13.6985C13.3538 4.672 12.4513 4 11.3846 4C10.3179 4 9.41538 4.672 9.07077 5.6H5.64103C4.73846 5.6 4 6.32 4 7.2V18.4C4 19.28 4.73846 20 5.64103 20H10.5641V18.4H5.64103V7.2ZM11.3846 5.6C11.8359 5.6 12.2051 5.96 12.2051 6.4C12.2051 6.84 11.8359 7.2 11.3846 7.2C10.9333 7.2 10.5641 6.84 10.5641 6.4C10.5641 5.96 10.9333 5.6 11.3846 5.6Z" fill="white"/>
<path d="M18.7692 12.4L14.2646 16.8L11.7949 14.4L10.5641 15.6L14.2646 19.2L20 13.6L18.7692 12.4Z" fill="white"/>
</g>
<defs>
<clipPath id="clip0_28063_263">
<rect width="16" height="16" fill="white" transform="translate(4 4)"/>
</clipPath>
</defs>
</svg>
