<svg width="24" height="24" viewBox="0 0 24 24" fill="none" xmlns="http://www.w3.org/2000/svg">
<rect width="24" height="24" rx="4" fill="#2C46B7"/>
<path d="M19 8L12 4L5 8V16L12 20L19 16V8ZM12 5.832L16.5967 8.456L14.2556 9.792C13.6878 9.184 12.8867 8.8 12 8.8C11.1133 8.8 10.3122 9.184 9.74444 9.792L7.40333 8.456L12 5.832ZM11.2222 17.728L6.55556 15.064V9.808L8.99 11.2C8.92 11.448 8.88889 11.72 8.88889 12C8.88889 13.488 9.87667 14.744 11.2222 15.096V17.728ZM10.4444 12C10.4444 11.12 11.1444 10.4 12 10.4C12.8556 10.4 13.5556 11.12 13.5556 12C13.5556 12.88 12.8556 13.6 12 13.6C11.1444 13.6 10.4444 12.88 10.4444 12ZM12.7778 17.728V15.104C14.1233 14.752 15.1111 13.496 15.1111 12.008C15.1111 11.728 15.08 11.456 15.01 11.2L17.4444 9.808V15.064L12.7778 17.728Z" fill="white"/>
</svg>
