<svg width="40" height="40" viewBox="0 0 40 40" fill="none" xmlns="http://www.w3.org/2000/svg">
<rect width="40" height="40" rx="4" fill="#2C46B7"/>
<path d="M28.75 15L20 10L11.25 15V25L20 30L28.75 25V15ZM20 12.29L25.7458 15.57L22.8194 17.24C22.1097 16.48 21.1083 16 20 16C18.8917 16 17.8903 16.48 17.1806 17.24L14.2542 15.57L20 12.29ZM19.0278 27.16L13.1944 23.83V17.26L16.2375 19C16.15 19.31 16.1111 19.65 16.1111 20C16.1111 21.86 17.3458 23.43 19.0278 23.87V27.16ZM18.0556 20C18.0556 18.9 18.9306 18 20 18C21.0694 18 21.9444 18.9 21.9444 20C21.9444 21.1 21.0694 22 20 22C18.9306 22 18.0556 21.1 18.0556 20ZM20.9722 27.16V23.88C22.6542 23.44 23.8889 21.87 23.8889 20.01C23.8889 19.66 23.85 19.32 23.7625 19L26.8056 17.26V23.83L20.9722 27.16Z" fill="white"/>
</svg>
