<svg width="32" height="32" viewBox="0 0 32 32" fill="none" xmlns="http://www.w3.org/2000/svg">
<rect width="32" height="32" rx="4" fill="#2C46B7"/>
<path d="M23 12L16 8L9 12V20L16 24L23 20V12ZM16 9.832L20.5967 12.456L18.2556 13.792C17.6878 13.184 16.8867 12.8 16 12.8C15.1133 12.8 14.3122 13.184 13.7444 13.792L11.4033 12.456L16 9.832ZM15.2222 21.728L10.5556 19.064V13.808L12.99 15.2C12.92 15.448 12.8889 15.72 12.8889 16C12.8889 17.488 13.8767 18.744 15.2222 19.096V21.728ZM14.4444 16C14.4444 15.12 15.1444 14.4 16 14.4C16.8556 14.4 17.5556 15.12 17.5556 16C17.5556 16.88 16.8556 17.6 16 17.6C15.1444 17.6 14.4444 16.88 14.4444 16ZM16.7778 21.728V19.104C18.1233 18.752 19.1111 17.496 19.1111 16.008C19.1111 15.728 19.08 15.456 19.01 15.2L21.4444 13.808V19.064L16.7778 21.728Z" fill="white"/>
</svg>
