<svg width="32" height="32" viewBox="0 0 32 32" fill="none" xmlns="http://www.w3.org/2000/svg">
<rect width="32" height="32" rx="4" fill="#0095A4"/>
<path d="M10.3333 20.3333V13H21V15.1933C21.48 15.34 21.9333 15.5533 22.3333 15.84V13C22.3333 12.26 21.74 11.6667 21 11.6667H18.3333V10.3333C18.3333 9.59333 17.74 9 17 9H14.3333C13.5933 9 13 9.59333 13 10.3333V11.6667H10.3333C9.59333 11.6667 9.00667 12.26 9.00667 13L9 20.3333C9 21.0733 9.59333 21.6667 10.3333 21.6667H15.4533C15.2533 21.2533 15.12 20.8067 15.0533 20.3333H10.3333ZM14.3333 10.3333H17V11.6667H14.3333V10.3333Z" fill="white"/>
<path d="M19.6667 16.3333C17.8267 16.3333 16.3333 17.8267 16.3333 19.6667C16.3333 21.5067 17.8267 23 19.6667 23C21.5067 23 23 21.5067 23 19.6667C23 17.8267 21.5067 16.3333 19.6667 16.3333ZM20.7667 21.2333L19.3333 19.8V17.6667H20V19.5267L21.2333 20.76L20.7667 21.2333Z" fill="white"/>
</svg>
