<svg width="40" height="40" viewBox="0 0 40 40" fill="none" xmlns="http://www.w3.org/2000/svg">
<rect width="40" height="40" rx="4" fill="#0095A4"/>
<path d="M12.9167 25.4167V16.25H26.25V18.9917C26.85 19.175 27.4167 19.4417 27.9167 19.8V16.25C27.9167 15.325 27.175 14.5833 26.25 14.5833H22.9167V12.9167C22.9167 11.9917 22.175 11.25 21.25 11.25H17.9167C16.9917 11.25 16.25 11.9917 16.25 12.9167V14.5833H12.9167C11.9917 14.5833 11.2583 15.325 11.2583 16.25L11.25 25.4167C11.25 26.3417 11.9917 27.0833 12.9167 27.0833H19.3167C19.0667 26.5667 18.9 26.0083 18.8167 25.4167H12.9167ZM17.9167 12.9167H21.25V14.5833H17.9167V12.9167Z" fill="white"/>
<path d="M24.5833 20.4167C22.2833 20.4167 20.4167 22.2833 20.4167 24.5833C20.4167 26.8833 22.2833 28.75 24.5833 28.75C26.8833 28.75 28.75 26.8833 28.75 24.5833C28.75 22.2833 26.8833 20.4167 24.5833 20.4167ZM25.9583 26.5417L24.1667 24.75V22.0833H25V24.4083L26.5417 25.95L25.9583 26.5417Z" fill="white"/>
</svg>
