<svg width="24" height="24" viewBox="0 0 24 24" fill="none" xmlns="http://www.w3.org/2000/svg">
<rect width="24" height="24" rx="4" fill="#0095A4"/>
<path d="M6.33333 16.3333V9H17V11.1933C17.48 11.34 17.9333 11.5533 18.3333 11.84V9C18.3333 8.26 17.74 7.66667 17 7.66667H14.3333V6.33333C14.3333 5.59333 13.74 5 13 5H10.3333C9.59333 5 9 5.59333 9 6.33333V7.66667H6.33333C5.59333 7.66667 5.00667 8.26 5.00667 9L5 16.3333C5 17.0733 5.59333 17.6667 6.33333 17.6667H11.4533C11.2533 17.2533 11.12 16.8067 11.0533 16.3333H6.33333ZM10.3333 6.33333H13V7.66667H10.3333V6.33333Z" fill="white"/>
<path d="M15.6667 12.3333C13.8267 12.3333 12.3333 13.8267 12.3333 15.6667C12.3333 17.5067 13.8267 19 15.6667 19C17.5067 19 19 17.5067 19 15.6667C19 13.8267 17.5067 12.3333 15.6667 12.3333ZM16.7667 17.2333L15.3333 15.8V13.6667H16V15.5267L17.2333 16.76L16.7667 17.2333Z" fill="white"/>
</svg>
