<svg width="40" height="40" viewBox="0 0 40 40" fill="none" xmlns="http://www.w3.org/2000/svg">
<path d="M0 4C0 1.79086 1.79086 0 4 0H36C38.2091 0 40 1.79086 40 4V36C40 38.2091 38.2091 40 36 40H4C1.79086 40 0 38.2091 0 36V4Z" fill="#00599B"/>
<g clip-path="url(#clip0_34138_10631)">
<path d="M26.599 23.9422C26.6938 23.6859 27.0562 23.6859 27.151 23.9422L27.8686 25.8814L29.8078 26.599C30.0641 26.6938 30.0641 27.0562 29.8078 27.151L27.8686 27.8686L27.151 29.8078C27.0562 30.0641 26.6938 30.0641 26.599 29.8078L25.8814 27.8686L23.9422 27.151C23.6859 27.0562 23.6859 26.6938 23.9422 26.599L25.8814 25.8814L26.599 23.9422Z" fill="white"/>
<path d="M28.125 10.625C28.8154 10.625 29.375 11.1846 29.375 11.875V21.875H27.5V12.5H12.5V27.5H21.875V29.375H11.875L11.7471 29.3682C11.1589 29.3084 10.6916 28.8411 10.6318 28.2529L10.625 28.125V11.875C10.625 11.1846 11.1846 10.625 11.875 10.625H28.125ZM25 13.75C25.6904 13.75 26.25 14.3096 26.25 15C26.25 15.6641 25.732 16.2047 25.0781 16.2451L23.2275 18.0967C23.2222 18.0877 23.2163 18.0792 23.2109 18.0703C23.5508 18.6346 23.75 19.2933 23.75 20C23.75 20.6951 23.5571 21.3442 23.2275 21.9023L25 23.75L23.7539 25.0791L21.9023 23.2275C21.3444 23.5568 20.6947 23.75 20 23.75C19.2933 23.75 18.6346 23.5508 18.0703 23.2109C18.0792 23.2163 18.0877 23.2222 18.0967 23.2275L16.2451 25.0781C16.2047 25.732 15.6641 26.25 15 26.25C14.3096 26.25 13.75 25.6904 13.75 25C13.75 24.3367 14.2671 23.7955 14.9199 23.7539L16.7715 21.9023C16.7799 21.9166 16.7893 21.9302 16.7979 21.9443C16.4526 21.3769 16.25 20.7128 16.25 20C16.25 19.275 16.4591 18.6001 16.8154 18.0264C16.8009 18.0498 16.7856 18.0729 16.7715 18.0967L14.9199 16.2451C14.2672 16.2035 13.75 15.6632 13.75 15C13.75 14.3096 14.3096 13.75 15 13.75C15.6632 13.75 16.2035 14.2672 16.2451 14.9199L18.0967 16.7715C18.0729 16.7856 18.0498 16.8009 18.0264 16.8154C18.6001 16.4591 19.275 16.25 20 16.25C20.7128 16.25 21.3769 16.4526 21.9443 16.7979C21.9302 16.7893 21.9166 16.7799 21.9023 16.7715L23.7539 14.9199C23.7955 14.2671 24.3367 13.75 25 13.75ZM20 18.125C18.9645 18.125 18.125 18.9645 18.125 20C18.125 21.0355 18.9645 21.875 20 21.875C21.0355 21.875 21.875 21.0355 21.875 20C21.875 18.9645 21.0355 18.125 20 18.125Z" fill="white"/>
</g>
<defs>
<clipPath id="clip0_34138_10631">
<rect width="20" height="20" fill="white" transform="translate(10 10)"/>
</clipPath>
</defs>
</svg>
