<svg width="24" height="24" viewBox="0 0 24 24" fill="none" xmlns="http://www.w3.org/2000/svg">
<path d="M0 4C0 1.79086 1.79086 0 4 0H20C22.2091 0 24 1.79086 24 4V20C24 22.2091 22.2091 24 20 24H4C1.79086 24 0 22.2091 0 20V4Z" fill="#0095A4"/>
<g clip-path="url(#clip0_34158_8020)">
<path d="M18.5 4.5C19.0523 4.5 19.5 4.94772 19.5 5.5V12.7002H18V6H6V18H12.7002V19.5H5.5L5.39746 19.4951C4.92703 19.4472 4.55278 19.073 4.50488 18.6025L4.5 18.5V5.5C4.5 4.94772 4.94772 4.5 5.5 4.5H18.5ZM16 7C16.5523 7 17 7.44772 17 8C17 8.53125 16.5856 8.96377 16.0625 8.99609L14.582 10.4775C14.5777 10.4702 14.5727 10.4633 14.5684 10.4561C14.8403 10.9075 15 11.4345 15 12C15 12.5561 14.8457 13.075 14.582 13.5215C14.2517 14.0809 14 14.2996 13.5215 14.582C13.0752 14.8454 12.5558 15 12 15C11.4345 15 10.9075 14.8403 10.4561 14.5684C10.4633 14.5727 10.4702 14.5777 10.4775 14.582L8.99609 16.0625C8.96377 16.5856 8.53125 17 8 17C7.44772 17 7 16.5523 7 16C7 15.4694 7.41333 15.0362 7.93555 15.0029L9.41699 13.5215C9.42384 13.5331 9.43148 13.5442 9.43848 13.5557C9.16216 13.1017 9 12.5703 9 12C9 11.42 9.16708 10.8799 9.45215 10.4209C9.44043 10.4398 9.4283 10.4584 9.41699 10.4775L7.93555 8.99609C7.41335 8.96281 7 8.53059 7 8C7 7.44772 7.44772 7 8 7C8.53059 7 8.96281 7.41335 8.99609 7.93555L10.4775 9.41699C10.4584 9.4283 10.4398 9.44043 10.4209 9.45215C10.8799 9.16708 11.42 9 12 9C12.5703 9 13.1017 9.16216 13.5557 9.43848C13.5442 9.43148 13.5331 9.42384 13.5215 9.41699L15.0029 7.93555C15.0362 7.41333 15.4694 7 16 7ZM12 10.5C11.1716 10.5 10.5 11.1716 10.5 12C10.5 12.8284 11.1716 13.5 12 13.5C12.8284 13.5 13.5 12.8284 13.5 12C13.5 11.1716 12.8284 10.5 12 10.5Z" fill="white"/>
<path d="M16.8 13.6C15.0336 13.6 13.6 15.0336 13.6 16.8C13.6 18.5664 15.0336 20 16.8 20C18.5664 20 20 18.5664 20 16.8C20 15.0336 18.5664 13.6 16.8 13.6ZM17.856 18.304L16.48 16.928V14.88H17.12V16.6656L18.304 17.8496L17.856 18.304Z" fill="white"/>
</g>
<defs>
<clipPath id="clip0_34158_8020">
<rect width="16" height="16" fill="white" transform="translate(4 4)"/>
</clipPath>
</defs>
</svg>
