<svg width="24" height="24" viewBox="0 0 24 24" fill="none" xmlns="http://www.w3.org/2000/svg">
<path d="M0 4C0 1.79086 1.79086 0 4 0H20C22.2091 0 24 1.79086 24 4V20C24 22.2091 22.2091 24 20 24H4C1.79086 24 0 22.2091 0 20V4Z" fill="#0F80C0"/>
<g clip-path="url(#clip0_34137_2882)">
<path fill-rule="evenodd" clip-rule="evenodd" d="M16 7C16.5523 7 17 7.44772 17 8C17 8.53125 16.5856 8.96377 16.0625 8.99609L14.582 10.4775C14.5777 10.4702 14.5727 10.4633 14.5684 10.4561C14.8403 10.9075 15 11.4345 15 12C15 12.5561 14.8457 13.075 14.582 13.5215L16.0635 15.0029C16.5862 15.0357 17 15.4691 17 16C17 16.5523 16.5523 17 16 17C15.4691 17 15.0357 16.5862 15.0029 16.0635L13.5215 14.582C13.0752 14.8454 12.5558 15 12 15C11.4345 15 10.9075 14.8403 10.4561 14.5684C10.4633 14.5727 10.4702 14.5777 10.4775 14.582L8.99609 16.0625C8.96377 16.5856 8.53125 17 8 17C7.44772 17 7 16.5523 7 16C7 15.4694 7.41333 15.0362 7.93555 15.0029L9.41699 13.5215C9.42384 13.5331 9.43148 13.5442 9.43848 13.5557C9.16216 13.1017 9 12.5703 9 12C9 11.42 9.16708 10.8799 9.45215 10.4209C9.44043 10.4398 9.4283 10.4584 9.41699 10.4775L7.93555 8.99609C7.41335 8.96281 7 8.53059 7 8C7 7.44772 7.44772 7 8 7C8.53059 7 8.96281 7.41335 8.99609 7.93555L10.4775 9.41699C10.4584 9.4283 10.4398 9.44043 10.4209 9.45215C10.8799 9.16708 11.42 9 12 9C12.5703 9 13.1017 9.16216 13.5557 9.43848C13.5442 9.43148 13.5331 9.42384 13.5215 9.41699L15.0029 7.93555C15.0362 7.41333 15.4694 7 16 7ZM12 10.5C11.1716 10.5 10.5 11.1716 10.5 12C10.5 12.8284 11.1716 13.5 12 13.5C12.8284 13.5 13.5 12.8284 13.5 12C13.5 11.1716 12.8284 10.5 12 10.5Z" fill="white"/>
<path fill-rule="evenodd" clip-rule="evenodd" d="M18.5 4.5C19.0523 4.5 19.5 4.94772 19.5 5.5V18.5C19.5 19.0177 19.1067 19.4438 18.6025 19.4951L18.5 19.5H5.5L5.39746 19.4951C4.92703 19.4472 4.55278 19.073 4.50488 18.6025L4.5 18.5V5.5C4.5 4.94772 4.94772 4.5 5.5 4.5H18.5ZM6 18H18V6H6V18Z" fill="white"/>
</g>
<defs>
<clipPath id="clip0_34137_2882">
<rect width="16" height="16" fill="white" transform="translate(4 4)"/>
</clipPath>
</defs>
</svg>
