<svg width="32" height="32" viewBox="0 0 32 32" fill="none" xmlns="http://www.w3.org/2000/svg">
<path d="M0 4C0 1.79086 1.79086 0 4 0H28C30.2091 0 32 1.79086 32 4V28C32 30.2091 30.2091 32 28 32H4C1.79086 32 0 30.2091 0 28V4Z" fill="#00599B"/>
<g clip-path="url(#clip0_34139_10638)">
<path d="M21.2792 19.1537C21.355 18.9488 21.645 18.9488 21.7208 19.1537L22.2949 20.7051L23.8463 21.2792C24.0512 21.355 24.0512 21.645 23.8463 21.7208L22.2949 22.2949L21.7208 23.8463C21.645 24.0512 21.355 24.0512 21.2792 23.8463L20.7051 22.2949L19.1537 21.7208C18.9488 21.645 18.9488 21.355 19.1537 21.2792L20.7051 20.7051L21.2792 19.1537Z" fill="white"/>
<path d="M22.5 8.5C23.0523 8.5 23.5 8.94772 23.5 9.5V17.5H22V10H10V22H17.5V23.5H9.5L9.39746 23.4951C8.92703 23.4472 8.55278 23.073 8.50488 22.6025L8.5 22.5V9.5C8.5 8.94772 8.94772 8.5 9.5 8.5H22.5ZM20 11C20.5523 11 21 11.4477 21 12C21 12.5313 20.5856 12.9638 20.0625 12.9961L18.582 14.4775C18.5777 14.4702 18.5727 14.4633 18.5684 14.4561C18.8403 14.9075 19 15.4345 19 16C19 16.5561 18.8457 17.075 18.582 17.5215L20 19L19.0029 20.0635L17.5215 18.582C17.0752 18.8454 16.5558 19 16 19C15.4345 19 14.9075 18.8403 14.4561 18.5684C14.4633 18.5727 14.4702 18.5777 14.4775 18.582L12.9961 20.0625C12.9638 20.5856 12.5313 21 12 21C11.4477 21 11 20.5523 11 20C11 19.4694 11.4133 19.0362 11.9355 19.0029L13.417 17.5215C13.4238 17.5331 13.4315 17.5442 13.4385 17.5557C13.1622 17.1017 13 16.5703 13 16C13 15.42 13.1671 14.8799 13.4521 14.4209C13.4404 14.4398 13.4283 14.4584 13.417 14.4775L11.9355 12.9961C11.4134 12.9628 11 12.5306 11 12C11 11.4477 11.4477 11 12 11C12.5306 11 12.9628 11.4134 12.9961 11.9355L14.4775 13.417C14.4584 13.4283 14.4398 13.4404 14.4209 13.4521C14.8799 13.1671 15.42 13 16 13C16.5703 13 17.1017 13.1622 17.5557 13.4385C17.5442 13.4315 17.5331 13.4238 17.5215 13.417L19.0029 11.9355C19.0362 11.4133 19.4694 11 20 11ZM16 14.5C15.1716 14.5 14.5 15.1716 14.5 16C14.5 16.8284 15.1716 17.5 16 17.5C16.8284 17.5 17.5 16.8284 17.5 16C17.5 15.1716 16.8284 14.5 16 14.5Z" fill="white"/>
</g>
<defs>
<clipPath id="clip0_34139_10638">
<rect width="16" height="16" fill="white" transform="translate(8 8)"/>
</clipPath>
</defs>
</svg>
