<svg width="40" height="40" viewBox="0 0 40 40" fill="none" xmlns="http://www.w3.org/2000/svg">
<path d="M0 4C0 1.79086 1.79086 0 4 0H36C38.2091 0 40 1.79086 40 4V36C40 38.2091 38.2091 40 36 40H4C1.79086 40 0 38.2091 0 36V4Z" fill="#0F80C0"/>
<g clip-path="url(#clip0_34137_2868)">
<path fill-rule="evenodd" clip-rule="evenodd" d="M25 13.75C25.6904 13.75 26.25 14.3096 26.25 15C26.25 15.6641 25.732 16.2047 25.0781 16.2451L23.2275 18.0969C23.2221 18.0878 23.2159 18.0792 23.2104 18.0701C23.5504 18.6344 23.75 19.2932 23.75 20C23.75 20.6951 23.5571 21.3438 23.2275 21.9019L25.0793 23.7537C25.7327 23.7946 26.25 24.3363 26.25 25C26.25 25.6904 25.6904 26.25 25 26.25C24.3363 26.25 23.7946 25.7327 23.7537 25.0793L21.9019 23.2275C21.344 23.5568 20.6947 23.75 20 23.75C19.2932 23.75 18.6344 23.5504 18.0701 23.2104C18.0792 23.2159 18.0878 23.2221 18.0969 23.2275L16.2451 25.0781C16.2047 25.732 15.6641 26.25 15 26.25C14.3096 26.25 13.75 25.6904 13.75 25C13.75 24.3367 14.2667 23.7952 14.9194 23.7537L16.7712 21.9019C16.7798 21.9163 16.7894 21.9302 16.7981 21.9446C16.4527 21.3771 16.25 20.7129 16.25 20C16.25 19.2749 16.4588 18.5998 16.8152 18.0261C16.8005 18.0497 16.7854 18.073 16.7712 18.0969L14.9194 16.2451C14.2667 16.2035 13.75 15.6632 13.75 15C13.75 14.3096 14.3096 13.75 15 13.75C15.6632 13.75 16.2035 14.2667 16.2451 14.9194L18.0969 16.7712C18.073 16.7854 18.0497 16.8005 18.0261 16.8152C18.5998 16.4588 19.2749 16.25 20 16.25C20.7129 16.25 21.3771 16.4527 21.9446 16.7981C21.9302 16.7894 21.9163 16.7798 21.9019 16.7712L23.7537 14.9194C23.7952 14.2667 24.3367 13.75 25 13.75ZM20 18.125C18.9645 18.125 18.125 18.9645 18.125 20C18.125 21.0355 18.9645 21.875 20 21.875C21.0355 21.875 21.875 21.0355 21.875 20C21.875 18.9645 21.0355 18.125 20 18.125Z" fill="white"/>
<path fill-rule="evenodd" clip-rule="evenodd" d="M28.125 10.625C28.8154 10.625 29.375 11.1846 29.375 11.875V28.125C29.375 28.7721 28.8833 29.3047 28.2532 29.3689L28.125 29.375H11.875L11.7468 29.3689C11.1588 29.309 10.691 28.8412 10.6311 28.2532L10.625 28.125V11.875C10.625 11.1846 11.1846 10.625 11.875 10.625H28.125ZM12.5 27.5H27.5V12.5H12.5V27.5Z" fill="white"/>
</g>
<defs>
<clipPath id="clip0_34137_2868">
<rect width="20" height="20" fill="white" transform="translate(10 10)"/>
</clipPath>
</defs>
</svg>
